<svg width="113" height="27" viewBox="0 0 113 27" fill="none" xmlns="http://www.w3.org/2000/svg">
<mask id="mask0_302_5" style="mask-type:alpha" maskUnits="userSpaceOnUse" x="6" y="7" width="3" height="5">
<path d="M6.12924 7.5887L6.54437 7.34902L8.46176 10.67L7.6315 11.1494L6.12924 7.5887Z" fill="#A16207"/>
</mask>
<g mask="url(#mask0_302_5)">
<path d="M6.12924 7.5887L6.54437 7.34902L7.02371 8.17928L6.19346 8.65862L6.12924 7.5887Z" fill="#8B580E"/>
</g>
<path fill-rule="evenodd" clip-rule="evenodd" d="M13.1887 1.15989C11.6873 1.3576 9.88073 2.99094 8.71112 5.37823C7.54153 7.76545 7.358 10.1939 8.12185 11.5015C9.62326 11.3038 11.4298 9.67045 12.5994 7.28317C13.769 4.89594 13.9525 2.46749 13.1887 1.15989Z" fill="#10B981"/>
<path fill-rule="evenodd" clip-rule="evenodd" d="M7.83295 10.758C7.22399 11.649 5.71284 12.21 3.99293 12.086C2.27362 11.9621 0.858902 11.1908 0.38349 10.2222C0.992455 9.33118 2.50361 8.77022 4.22352 8.89417C5.94282 9.01807 7.35754 9.7894 7.83295 10.758Z" fill="#10B981"/>
<circle cx="11.8172" cy="16.4819" r="7.66957" transform="rotate(-30 11.8172 16.4819)" fill="url(#paint0_linear_302_5)"/>
<circle cx="14.0041" cy="13.5587" r="3.35544" transform="rotate(-30 14.0041 13.5587)" fill="url(#paint1_linear_302_5)"/>
<path d="M33.7368 9.656C34.5155 9.656 35.1982 9.768 35.7848 9.992C36.3822 10.2053 36.6808 10.4987 36.6808 10.872C36.6808 11.2453 36.5368 11.7093 36.2488 12.264C35.9715 12.808 35.7368 13.08 35.5448 13.08C35.4915 13.08 35.4275 13.0533 35.3528 13C35.2888 12.936 35.1288 12.872 34.8728 12.808C34.6275 12.7333 34.4142 12.696 34.2328 12.696C33.6142 12.696 33.1128 12.9147 32.7288 13.352C32.3555 13.7893 32.1688 14.4613 32.1688 15.368C32.1688 16.264 32.3608 16.9307 32.7448 17.368C33.1395 17.8053 33.6355 18.024 34.2328 18.024C34.4782 18.024 34.7502 17.992 35.0488 17.928C35.3582 17.8533 35.5768 17.752 35.7048 17.624C35.7262 17.6027 35.7688 17.592 35.8328 17.592C35.8968 17.592 36.0142 17.7147 36.1848 17.96C36.3662 18.1947 36.5315 18.5093 36.6808 18.904C36.8302 19.288 36.9048 19.5867 36.9048 19.8C36.9048 20.216 36.5848 20.5467 35.9448 20.792C35.3048 21.0373 34.5475 21.16 33.6728 21.16C32.2648 21.16 31.1075 20.664 30.2008 19.672C29.2942 18.68 28.8408 17.2827 28.8408 15.48C28.8408 13.6667 29.3048 12.2427 30.2328 11.208C31.1715 10.1733 32.3395 9.656 33.7368 9.656ZM40.7216 20.888C40.7216 20.984 40.2736 21.032 39.3776 21.032C38.4923 21.032 38.0496 20.9573 38.0496 20.808V9.848C38.0496 9.77333 38.2149 9.72 38.5456 9.688C38.8763 9.656 39.1536 9.64 39.3776 9.64C40.2736 9.64 40.7216 9.736 40.7216 9.928V13.128C41.3189 12.9467 41.7723 12.856 42.0816 12.856C42.8923 12.856 43.5323 13.0747 44.0016 13.512C44.4709 13.9387 44.7056 14.7387 44.7056 15.912V20.872C44.7056 20.968 44.2896 21.016 43.4576 21.016C42.5189 20.984 42.0496 20.9307 42.0496 20.856V16.152C42.0496 15.6293 41.8789 15.368 41.5376 15.368C41.3029 15.368 41.0309 15.48 40.7216 15.704V20.888ZM52.1132 20.568C51.4412 20.9627 50.5772 21.16 49.5212 21.16C48.4652 21.16 47.5745 20.8027 46.8492 20.088C46.1239 19.3627 45.7612 18.3653 45.7612 17.096C45.7612 15.816 46.1079 14.7867 46.8012 14.008C47.5052 13.2293 48.3905 12.84 49.4572 12.84C50.5239 12.84 51.3452 13.112 51.9212 13.656C52.5079 14.2 52.8012 14.8613 52.8012 15.64C52.8012 17.368 51.8092 18.232 49.8252 18.232H48.7212C48.7212 18.552 48.8065 18.776 48.9772 18.904C49.1585 19.0213 49.4199 19.08 49.7612 19.08C50.5079 19.08 51.2172 18.9093 51.8892 18.568C51.8999 18.5573 51.9479 18.632 52.0332 18.792C52.2892 19.2507 52.4172 19.64 52.4172 19.96C52.4172 20.2693 52.3159 20.472 52.1132 20.568ZM50.1132 15.944C50.1132 15.496 49.8945 15.272 49.4572 15.272C49.2545 15.272 49.0785 15.336 48.9292 15.464C48.7905 15.5813 48.7212 15.7573 48.7212 15.992V16.488H49.5852C49.9372 16.488 50.1132 16.3067 50.1132 15.944ZM57.3505 20.984C57.3505 21.0587 56.8651 21.096 55.8945 21.096C54.9238 21.0747 54.4385 21.032 54.4385 20.968V15.656H54.0065C53.8358 15.656 53.6971 15.5547 53.5905 15.352C53.4945 15.1387 53.4465 14.8773 53.4465 14.568C53.4465 13.416 53.7878 12.84 54.4705 12.84C54.9505 12.84 55.3505 12.9893 55.6705 13.288C55.9905 13.576 56.1505 13.9067 56.1505 14.28C56.3745 13.8427 56.6731 13.496 57.0465 13.24C57.4305 12.9733 57.8198 12.84 58.2145 12.84C58.8331 12.84 59.2065 13 59.3345 13.32C59.3665 13.4053 59.3825 13.5333 59.3825 13.704C59.3825 13.864 59.3291 14.1573 59.2225 14.584C59.1265 15.0107 59.0251 15.32 58.9185 15.512C58.8118 15.704 58.7478 15.8 58.7265 15.8C58.7051 15.8 58.6038 15.7627 58.4225 15.688C58.2518 15.6027 58.0971 15.56 57.9585 15.56C57.5531 15.56 57.3505 15.88 57.3505 16.52V20.984ZM63.6942 20.984C63.6942 21.0587 63.2089 21.096 62.2382 21.096C61.2675 21.0747 60.7822 21.032 60.7822 20.968V15.656H60.3502C60.1795 15.656 60.0409 15.5547 59.9342 15.352C59.8382 15.1387 59.7902 14.8773 59.7902 14.568C59.7902 13.416 60.1315 12.84 60.8142 12.84C61.2942 12.84 61.6942 12.9893 62.0142 13.288C62.3342 13.576 62.4942 13.9067 62.4942 14.28C62.7182 13.8427 63.0169 13.496 63.3902 13.24C63.7742 12.9733 64.1635 12.84 64.5582 12.84C65.1769 12.84 65.5502 13 65.6782 13.32C65.7102 13.4053 65.7262 13.5333 65.7262 13.704C65.7262 13.864 65.6729 14.1573 65.5662 14.584C65.4702 15.0107 65.3689 15.32 65.2622 15.512C65.1555 15.704 65.0915 15.8 65.0702 15.8C65.0489 15.8 64.9475 15.7627 64.7662 15.688C64.5955 15.6027 64.4409 15.56 64.3022 15.56C63.8969 15.56 63.6942 15.88 63.6942 16.52V20.984ZM65.974 13.08C65.974 12.9627 66.4593 12.904 67.43 12.904C68.4113 12.904 68.918 12.9573 68.95 13.064L70.102 16.84L71.206 13.032C71.2486 12.9467 71.5793 12.904 72.198 12.904C73.6166 12.904 74.294 12.9733 74.23 13.112L70.47 23.816C70.4593 23.88 70.166 23.912 69.59 23.912C69.0246 23.912 68.4966 23.8907 68.006 23.848C67.5153 23.816 67.2806 23.7733 67.302 23.72L68.694 20.36L65.974 13.08ZM75.6237 17.096C75.8264 17.256 76.173 17.4747 76.6637 17.752C77.165 18.0293 77.6397 18.168 78.0877 18.168C78.5464 18.168 78.7757 17.992 78.7757 17.64C78.7757 17.48 78.7117 17.3413 78.5837 17.224C78.4557 17.096 78.221 16.952 77.8797 16.792C77.5384 16.632 77.2824 16.5093 77.1117 16.424C76.941 16.328 76.7117 16.1787 76.4237 15.976C76.1464 15.7627 75.933 15.544 75.7837 15.32C75.357 14.712 75.1437 13.9387 75.1437 13C75.1437 12.0613 75.4904 11.272 76.1837 10.632C76.8877 9.98133 77.805 9.656 78.9357 9.656C79.7037 9.656 80.413 9.74133 81.0637 9.912C81.7144 10.072 82.0504 10.2853 82.0717 10.552C82.0717 10.584 82.0717 10.616 82.0717 10.648C82.0717 11.0213 81.9544 11.496 81.7197 12.072C81.485 12.6373 81.3197 12.952 81.2237 13.016C80.541 12.664 79.9277 12.488 79.3837 12.488C78.8504 12.488 78.5837 12.68 78.5837 13.064C78.5837 13.2987 78.781 13.5067 79.1757 13.688C79.261 13.7307 79.3837 13.7893 79.5437 13.864C79.7037 13.9387 79.885 14.0293 80.0877 14.136C80.301 14.232 80.525 14.36 80.7597 14.52C81.005 14.6693 81.2664 14.872 81.5437 15.128C82.109 15.6613 82.3917 16.3653 82.3917 17.24C82.3917 18.3813 82.077 19.3147 81.4477 20.04C80.8184 20.7653 79.8477 21.1387 78.5357 21.16C77.8957 21.16 77.3144 21.1067 76.7917 21C76.2797 20.8933 75.8317 20.6853 75.4477 20.376C75.0637 20.0667 74.8717 19.6933 74.8717 19.256C74.8717 18.8187 74.9517 18.3867 75.1117 17.96C75.2717 17.5227 75.4424 17.2347 75.6237 17.096ZM91.9317 13.08C91.9317 12.984 92.225 12.936 92.8117 12.936C94.1344 12.936 94.785 12.9787 94.7637 13.064L93.1957 20.84C93.1637 21.0107 92.5717 21.096 91.4197 21.096C90.2677 21.096 89.6757 21.0107 89.6437 20.84L88.9877 17.256L88.1717 20.84C88.1397 21 87.5264 21.08 86.3317 21.08C85.1477 21.08 84.5397 20.984 84.5077 20.792L83.0837 13C83.0517 12.936 83.5104 12.904 84.4597 12.904C85.3984 12.9147 85.8677 12.936 85.8677 12.968L86.6037 18.376L87.9317 13.032C87.953 12.968 88.305 12.936 88.9877 12.936C89.6704 12.936 90.0224 12.968 90.0437 13.032L91.3557 18.312L91.9317 13.08ZM96.667 15.192C96.3683 14.6587 96.219 14.2267 96.219 13.896C96.219 13.5547 96.3096 13.336 96.491 13.24C97.099 12.9733 97.931 12.84 98.987 12.84C100.054 12.84 100.806 13.0907 101.243 13.592C101.68 14.0827 101.899 14.8133 101.899 15.784V18.312H102.443C102.624 18.312 102.763 18.4187 102.859 18.632C102.966 18.8453 103.019 19.1387 103.019 19.512C103.019 19.8853 102.923 20.2533 102.731 20.616C102.55 20.9787 102.299 21.16 101.979 21.16C101.403 21.16 100.939 21.0053 100.587 20.696C100.427 20.568 100.304 20.4133 100.219 20.232C99.7283 20.8507 98.9656 21.16 97.931 21.16C97.1523 21.16 96.4963 20.8827 95.963 20.328C95.4296 19.7733 95.163 19.1173 95.163 18.36C95.163 16.6213 96.203 15.752 98.283 15.752H99.163V15.592C99.163 15.3147 99.115 15.1387 99.019 15.064C98.9336 14.9787 98.7256 14.936 98.395 14.936C97.9896 14.936 97.4136 15.0213 96.667 15.192ZM97.947 18.136C97.947 18.3707 98.011 18.552 98.139 18.68C98.267 18.7973 98.427 18.856 98.619 18.856C98.8216 18.856 99.003 18.776 99.163 18.616V17.384H98.715C98.203 17.384 97.947 17.6347 97.947 18.136ZM107.365 23.912C107.365 23.9867 106.906 24.024 105.989 24.024C105.082 24.024 104.629 23.9867 104.629 23.912V15.672H104.085C103.829 15.672 103.653 15.4373 103.557 14.968C103.525 14.8187 103.509 14.6267 103.509 14.392C103.509 14.1573 103.583 13.88 103.733 13.56C103.946 13.0907 104.287 12.856 104.757 12.856C105.066 12.856 105.349 12.9307 105.605 13.08C105.871 13.2187 106.053 13.352 106.149 13.48C106.255 13.5973 106.309 13.6667 106.309 13.688C107.023 13.1333 107.797 12.856 108.629 12.856C109.461 12.856 110.175 13.1813 110.773 13.832C111.37 14.472 111.669 15.4693 111.669 16.824C111.669 18.168 111.37 19.2133 110.773 19.96C110.175 20.696 109.418 21.064 108.501 21.064C108.085 21.064 107.706 21.0427 107.365 21V23.912ZM108.021 15.656C107.839 15.656 107.663 15.7147 107.493 15.832V18.664C107.674 18.6853 107.818 18.696 107.925 18.696C108.042 18.696 108.133 18.696 108.197 18.696C108.634 18.6533 108.853 18.0933 108.853 17.016C108.853 16.1093 108.575 15.656 108.021 15.656Z" fill="url(#paint2_linear_302_5)"/>
<defs>
<linearGradient id="paint0_linear_302_5" x1="11.8172" y1="24.1514" x2="11.8172" y2="5.28846" gradientUnits="userSpaceOnUse">
<stop stop-color="#F43F5E"/>
<stop offset="1" stop-color="#FDA4AF"/>
</linearGradient>
<linearGradient id="paint1_linear_302_5" x1="14.0041" y1="16.9142" x2="14.0041" y2="8.66162" gradientUnits="userSpaceOnUse">
<stop stop-color="#FF617C"/>
<stop offset="1" stop-color="#FF96A3"/>
</linearGradient>
<linearGradient id="paint2_linear_302_5" x1="116.979" y1="24" x2="30.4819" y2="-6.56944" gradientUnits="userSpaceOnUse">
<stop stop-color="#F43F5E"/>
<stop offset="1" stop-color="#FDA4AF"/>
</linearGradient>
</defs>
</svg>
